<svg height="512" viewBox="0 0 128 128" width="512" xmlns="http://www.w3.org/2000/svg"><g><circle cx="64" cy="85.545" fill="#fed943" r="11.838"/><path d="m47.01 71.773a3.217 3.217 0 0 1 -2.275-5.492 27.242 27.242 0 0 1 38.529 0 3.217 3.217 0 1 1 -4.55 4.549 20.808 20.808 0 0 0 -29.429 0 3.207 3.207 0 0 1 -2.275.943z" fill="#fd9126"/><path d="m37.293 62.055a3.217 3.217 0 0 1 -2.275-5.492 40.987 40.987 0 0 1 57.963 0 3.217 3.217 0 1 1 -4.549 4.549 34.555 34.555 0 0 0 -48.865 0 3.206 3.206 0 0 1 -2.274.943z" fill="#fb4d4f"/><path d="m100.584 52.179a3.207 3.207 0 0 1 -2.275-.943 48.577 48.577 0 0 0 -68.618 0 3.217 3.217 0 1 1 -4.55-4.549 55.019 55.019 0 0 1 77.718 0 3.218 3.218 0 0 1 -2.275 5.492z" fill="#e5186a"/></g></svg>